<svg xmlns="http://www.w3.org/2000/svg" xmlns:xlink="http://www.w3.org/1999/xlink" width="500" zoomAndPan="magnify" viewBox="0 0 375 374.999991" height="500" preserveAspectRatio="xMidYMid meet" version="1.0"><defs><g/><clipPath id="ae8f60c44a"><path d="M 59.683594 59.683594 L 315.433594 59.683594 L 315.433594 315.433594 L 59.683594 315.433594 Z M 59.683594 59.683594 " clip-rule="nonzero"/></clipPath><clipPath id="2192ab7a3e"><path d="M 101.019531 101.019531 L 273.980469 101.019531 L 273.980469 273.980469 L 101.019531 273.980469 Z M 101.019531 101.019531 " clip-rule="nonzero"/></clipPath><clipPath id="41ad41a602"><path d="M 187.5 101.019531 C 139.738281 101.019531 101.019531 139.738281 101.019531 187.5 C 101.019531 235.261719 139.738281 273.980469 187.5 273.980469 C 235.261719 273.980469 273.980469 235.261719 273.980469 187.5 C 273.980469 139.738281 235.261719 101.019531 187.5 101.019531 Z M 187.5 101.019531 " clip-rule="nonzero"/></clipPath><clipPath id="1b20b15452"><path d="M 123 105.175781 L 253 105.175781 L 253 177 L 123 177 Z M 123 105.175781 " clip-rule="nonzero"/></clipPath></defs><g clip-path="url(#ae8f60c44a)"><path fill="#000000" d="M 274.46875 100.652344 C 252.230469 78.40625 221.5 64.652344 187.558594 64.652344 C 153.621094 64.652344 122.890625 78.410156 100.652344 100.652344 C 78.410156 122.890625 64.652344 153.621094 64.652344 187.558594 C 64.652344 221.5 78.410156 252.230469 100.652344 274.46875 C 122.890625 296.714844 153.621094 310.46875 187.558594 310.46875 C 221.5 310.46875 252.226562 296.707031 274.46875 274.46875 C 296.707031 252.230469 310.46875 221.5 310.46875 187.558594 C 310.472656 153.621094 296.714844 122.890625 274.46875 100.652344 M 187.558594 59.683594 C 222.871094 59.683594 254.839844 74 277.980469 97.136719 C 301.125 120.28125 315.433594 152.25 315.433594 187.558594 C 315.433594 222.871094 301.117188 254.839844 277.980469 277.980469 C 254.839844 301.125 222.871094 315.433594 187.558594 315.433594 C 152.25 315.433594 120.28125 301.117188 97.136719 277.980469 C 74 254.839844 59.683594 222.871094 59.683594 187.558594 C 59.683594 152.25 74 120.28125 97.136719 97.136719 C 120.28125 74 152.25 59.683594 187.558594 59.683594 Z M 187.558594 59.683594 " fill-opacity="1" fill-rule="nonzero"/></g><path fill="#000000" d="M 270.105469 105.015625 C 248.980469 83.890625 219.796875 70.824219 187.558594 70.824219 C 155.324219 70.824219 126.140625 83.890625 105.019531 105.015625 C 83.890625 126.140625 70.824219 155.324219 70.824219 187.558594 C 70.824219 219.796875 83.890625 248.980469 105.015625 270.097656 C 126.140625 291.222656 155.324219 304.289062 187.558594 304.289062 C 219.796875 304.289062 248.980469 291.222656 270.105469 270.097656 C 291.230469 248.972656 304.296875 219.796875 304.296875 187.558594 C 304.296875 155.324219 291.230469 126.140625 270.105469 105.015625 M 187.558594 68.347656 C 220.476562 68.347656 250.289062 81.691406 271.859375 103.265625 C 293.433594 124.839844 306.78125 154.640625 306.78125 187.566406 C 306.78125 220.484375 293.433594 250.292969 271.859375 271.867188 C 250.289062 293.441406 220.484375 306.785156 187.558594 306.785156 C 154.640625 306.785156 124.832031 293.441406 103.257812 271.867188 C 81.6875 250.289062 68.347656 220.476562 68.347656 187.558594 C 68.347656 154.640625 81.691406 124.832031 103.265625 103.257812 C 124.832031 81.6875 154.640625 68.347656 187.558594 68.347656 Z M 187.558594 68.347656 " fill-opacity="1" fill-rule="nonzero"/><path fill="#000000" d="M 248.527344 126.59375 C 232.925781 110.996094 211.367188 101.339844 187.558594 101.339844 C 163.753906 101.339844 142.195312 110.988281 126.59375 126.589844 C 110.996094 142.195312 101.34375 163.753906 101.34375 187.558594 C 101.34375 211.367188 110.996094 232.925781 126.59375 248.527344 C 142.195312 264.125 163.753906 273.777344 187.558594 273.777344 C 211.367188 273.777344 232.925781 264.125 248.527344 248.527344 C 264.125 232.917969 273.777344 211.367188 273.777344 187.558594 C 273.78125 163.753906 264.132812 142.195312 248.527344 126.59375 M 187.558594 98.859375 C 212.054688 98.859375 234.230469 108.789062 250.28125 124.839844 C 266.332031 140.890625 276.261719 163.066406 276.261719 187.558594 C 276.261719 212.050781 266.332031 234.226562 250.28125 250.28125 C 234.230469 266.332031 212.054688 276.261719 187.558594 276.261719 C 163.070312 276.261719 140.890625 266.332031 124.839844 250.277344 C 108.789062 234.230469 98.859375 212.054688 98.859375 187.558594 C 98.859375 163.066406 108.789062 140.890625 124.839844 124.839844 C 140.894531 108.789062 163.070312 98.859375 187.558594 98.859375 Z M 187.558594 98.859375 " fill-opacity="1" fill-rule="nonzero"/><path fill="#000000" d="M 86.898438 210.050781 C 89.277344 209.414062 91.722656 210.828125 92.359375 213.203125 C 92.996094 215.585938 91.585938 218.027344 89.203125 218.664062 C 86.824219 219.300781 84.378906 217.890625 83.742188 215.511719 C 83.105469 213.136719 84.515625 210.6875 86.898438 210.050781 " fill-opacity="1" fill-rule="evenodd"/><path fill="#000000" d="M 96.167969 235.464844 C 98.296875 234.230469 101.027344 234.964844 102.257812 237.097656 C 103.492188 239.226562 102.757812 241.957031 100.628906 243.1875 C 98.492188 244.421875 95.761719 243.6875 94.535156 241.550781 C 93.296875 239.425781 94.03125 236.699219 96.167969 235.464844 " fill-opacity="1" fill-rule="evenodd"/><path fill="#000000" d="M 288.230469 210.050781 C 285.855469 209.414062 283.402344 210.828125 282.769531 213.203125 C 282.132812 215.585938 283.539062 218.027344 285.921875 218.664062 C 288.296875 219.300781 290.746094 217.890625 291.382812 215.511719 C 292.019531 213.136719 290.609375 210.6875 288.230469 210.050781 " fill-opacity="1" fill-rule="evenodd"/><path fill="#000000" d="M 278.960938 235.464844 C 276.828125 234.230469 274.101562 234.964844 272.867188 237.097656 C 271.632812 239.226562 272.367188 241.957031 274.5 243.1875 C 276.628906 244.421875 279.359375 243.6875 280.589844 241.550781 C 281.824219 239.425781 281.089844 236.699219 278.960938 235.464844 " fill-opacity="1" fill-rule="evenodd"/><path fill="#000000" d="M 172.386719 273.183594 C 172.921875 264.074219 171.941406 250.066406 162.753906 241.039062 C 162.753906 241.039062 180.734375 219.050781 186.078125 198.199219 L 186.078125 236.066406 C 182.730469 236.753906 180.210938 239.714844 180.210938 243.261719 C 180.210938 247.320312 183.503906 250.609375 187.558594 250.609375 C 191.617188 250.609375 194.910156 247.320312 194.910156 243.261719 C 194.910156 239.710938 192.390625 236.75 189.042969 236.066406 L 189.042969 198.199219 C 194.386719 219.046875 212.367188 241.039062 212.367188 241.039062 C 202.957031 250.28125 202.167969 264.757812 202.78125 273.839844 C 198.382812 274.613281 193.851562 275.015625 189.230469 275.015625 C 183.445312 275.019531 177.808594 274.382812 172.386719 273.183594 " fill-opacity="1" fill-rule="evenodd"/><path fill="#000000" d="M 182.417969 129.292969 C 182.632812 130.027344 183.144531 131.003906 183.441406 131.777344 C 187.933594 143.46875 181.542969 149.839844 173.640625 158.847656 C 172.367188 160.246094 168.5625 164.992188 167.832031 167.15625 C 166.601562 168.765625 166.519531 173.035156 166.941406 175.246094 C 167.789062 179.71875 170.714844 184.519531 173.585938 187.707031 C 174.472656 188.703125 177.371094 191.925781 178.585938 192.324219 C 178.347656 191.300781 177.734375 189.96875 177.371094 188.957031 C 176.964844 187.84375 176.585938 186.695312 176.238281 185.566406 C 172.890625 174.527344 177.570312 170.125 182.890625 162.15625 C 183.542969 161.171875 184.183594 160.132812 184.785156 159.148438 C 185.945312 157.246094 187.332031 154.714844 188.140625 152.503906 C 189.03125 150.753906 189.929688 147.355469 190.25 145.121094 C 191.074219 139.246094 188.75 131.265625 182.417969 129.292969 M 178.40625 181.972656 C 178.882812 186.46875 181.417969 189.65625 184.089844 191.414062 C 187.316406 193.527344 191.78125 194.765625 196.152344 193.230469 C 207.402344 189.269531 212.453125 171.300781 204.640625 161.835938 C 203.945312 160.996094 202.507812 159.410156 201.5 158.980469 C 202.046875 165.183594 202.835938 172.585938 197.789062 177.574219 C 197 178.359375 196.285156 179.144531 195.050781 179.738281 C 191.875 181.273438 189.78125 179.332031 190.019531 175.972656 C 190.980469 170.878906 194.515625 168.066406 195.988281 163.632812 C 196.714844 161.441406 197.023438 159.207031 196.898438 156.660156 C 196.675781 152.128906 195.148438 147.707031 193.410156 144.269531 C 193.316406 144.417969 192.5 148.925781 192.277344 149.730469 C 191.800781 151.460938 191.164062 153.128906 190.457031 154.625 C 188.777344 158.1875 185.859375 162.230469 185.496094 163.007812 C 185.035156 163.480469 184.589844 164.269531 184.171875 164.867188 C 182.96875 166.59375 181.257812 169.128906 180.324219 170.964844 C 179.644531 172.324219 178.972656 174.101562 178.609375 175.835938 C 178.34375 177.148438 177.960938 180.742188 178.40625 181.972656 Z M 178.40625 181.972656 " fill-opacity="1" fill-rule="evenodd"/><path fill="#000000" d="M 131.277344 238.402344 L 156.785156 212.898438 L 125.5625 230.925781 C 126.4375 232.238281 127.351562 233.515625 128.304688 234.761719 C 129.265625 236.011719 130.253906 237.226562 131.277344 238.402344 M 120.519531 222.167969 L 151.777344 204.121094 L 116.933594 213.460938 C 117.441406 214.953125 117.992188 216.425781 118.585938 217.875 C 119.191406 219.324219 119.832031 220.757812 120.519531 222.167969 Z M 114.359375 203.667969 L 149.085938 194.363281 L 113.164062 194.363281 C 113.269531 195.941406 113.421875 197.519531 113.613281 199.074219 C 113.8125 200.605469 114.0625 202.132812 114.359375 203.667969 Z M 113.199219 184.222656 L 149.085938 184.222656 L 114.433594 174.9375 C 114.136719 176.449219 113.882812 177.984375 113.671875 179.542969 C 113.472656 181.09375 113.308594 182.65625 113.199219 184.222656 Z M 117.085938 165.167969 L 151.777344 174.460938 L 120.703125 156.519531 C 120.007812 157.917969 119.359375 159.34375 118.753906 160.796875 C 118.148438 162.234375 117.597656 163.695312 117.085938 165.167969 Z M 125.78125 147.792969 L 156.808594 165.707031 L 131.5 140.394531 C 130.464844 141.570312 129.476562 142.777344 128.523438 144.015625 C 127.566406 145.242188 126.652344 146.503906 125.78125 147.792969 Z M 138.679688 133.246094 L 163.953125 158.519531 L 146.089844 127.574219 C 144.789062 128.441406 143.527344 129.351562 142.285156 130.296875 C 141.054688 131.246094 139.847656 132.226562 138.679688 133.246094 Z M 154.851562 122.527344 L 171.402344 151.1875 L 171.941406 150.550781 L 163.472656 118.957031 C 161.996094 119.460938 160.535156 120.015625 159.105469 120.605469 C 157.671875 121.191406 156.257812 121.832031 154.851562 122.527344 Z M 173.261719 116.355469 L 174.316406 120.304688 L 182.496094 122.84375 L 182.496094 115.148438 C 180.933594 115.25 179.382812 115.410156 177.84375 115.609375 C 176.308594 115.800781 174.777344 116.050781 173.261719 116.355469 Z M 192.628906 115.148438 L 192.628906 128.578125 C 193.039062 129.035156 193.429688 129.503906 193.800781 130 L 194.023438 129.628906 L 196.824219 135.15625 L 201.867188 116.355469 C 200.34375 116.058594 198.8125 115.808594 197.285156 115.609375 C 195.746094 115.40625 194.191406 115.25 192.628906 115.148438 Z M 211.644531 118.953125 L 203.421875 149.640625 C 203.566406 150.105469 203.695312 150.566406 203.816406 151.035156 L 220.273438 122.527344 C 218.871094 121.832031 217.445312 121.195312 216.015625 120.605469 C 214.585938 120.007812 213.128906 119.457031 211.644531 118.953125 Z M 229.027344 127.574219 L 211.144531 158.542969 L 236.441406 133.246094 C 235.273438 132.226562 234.066406 131.246094 232.832031 130.300781 C 231.59375 129.351562 230.328125 128.441406 229.027344 127.574219 Z M 243.625 140.394531 L 218.3125 165.707031 L 249.339844 147.792969 C 248.464844 146.503906 247.554688 145.242188 246.605469 144.007812 C 245.648438 142.777344 244.65625 141.570312 243.625 140.394531 Z M 254.417969 156.519531 L 223.34375 174.460938 L 258.035156 165.167969 C 257.527344 163.695312 256.972656 162.234375 256.367188 160.804688 C 255.761719 159.34375 255.105469 157.917969 254.417969 156.519531 Z M 260.6875 174.9375 L 226.042969 184.222656 L 261.925781 184.222656 C 261.820312 182.65625 261.652344 181.09375 261.449219 179.542969 C 261.238281 177.984375 260.984375 176.449219 260.6875 174.9375 Z M 261.957031 194.363281 L 226.035156 194.363281 L 260.765625 203.667969 C 261.0625 202.136719 261.3125 200.605469 261.507812 199.074219 C 261.707031 197.519531 261.851562 195.941406 261.957031 194.363281 Z M 258.179688 213.453125 L 223.34375 204.117188 L 254.601562 222.160156 C 255.289062 220.75 255.929688 219.320312 256.535156 217.863281 C 257.125 216.421875 257.675781 214.949219 258.179688 213.453125 Z M 249.566406 230.917969 L 218.3125 212.878906 L 243.84375 238.410156 C 244.871094 237.226562 245.859375 236.011719 246.816406 234.765625 C 247.769531 233.515625 248.683594 232.230469 249.566406 230.917969 Z M 236.691406 245.585938 L 201.21875 210.113281 C 202.554688 213.003906 204.046875 215.886719 205.667969 218.734375 C 207.671875 222.261719 209.8125 225.660156 212.011719 228.90625 C 212.925781 230.257812 213.976562 231.765625 215.25 233.515625 C 216.324219 234.992188 217.445312 236.464844 218.613281 237.898438 L 223.28125 243.59375 L 218.023438 248.753906 C 215.988281 250.746094 214.460938 253.179688 213.347656 255.855469 C 212.792969 257.179688 212.34375 258.554688 211.976562 259.972656 C 216.171875 258.515625 220.199219 256.699219 224.019531 254.550781 C 228.566406 252 232.8125 248.992188 236.691406 245.585938 Z M 173.910156 210.117188 L 138.433594 245.59375 C 142.316406 248.996094 146.5625 252.003906 151.109375 254.5625 C 154.925781 256.710938 158.957031 258.527344 163.152344 259.984375 C 162.785156 258.566406 162.335938 257.191406 161.785156 255.867188 C 160.671875 253.195312 159.148438 250.765625 157.109375 248.765625 L 151.851562 243.605469 L 156.511719 237.910156 C 157.683594 236.476562 158.804688 235.003906 159.875 233.527344 C 161.148438 231.769531 162.195312 230.269531 163.117188 228.917969 C 165.316406 225.671875 167.457031 222.28125 169.460938 218.746094 C 171.078125 215.886719 172.574219 213.011719 173.910156 210.117188 Z M 173.910156 210.117188 " fill-opacity="1" fill-rule="evenodd"/><path fill="#000000" d="M 101.457031 172.136719 C 108.742188 131.1875 144.519531 100.101562 187.558594 100.101562 C 230.601562 100.101562 266.382812 131.1875 273.664062 172.136719 L 290.808594 185.828125 L 303.808594 167.339844 C 294.21875 111.820312 245.820312 69.585938 187.558594 69.585938 C 129.300781 69.585938 80.902344 111.820312 71.308594 167.339844 L 84.3125 185.828125 Z M 101.457031 172.136719 " fill-opacity="1" fill-rule="evenodd"/><g clip-path="url(#2192ab7a3e)"><g clip-path="url(#41ad41a602)"><path fill="#ffffff" d="M 101.019531 101.019531 L 273.980469 101.019531 L 273.980469 273.980469 L 101.019531 273.980469 Z M 101.019531 101.019531 " fill-opacity="1" fill-rule="nonzero"/></g></g><path fill="#000000" d="M 208.277344 169.902344 L 210.785156 169.066406 L 187.835938 160.859375 L 164.832031 169.066406 L 177.90625 173.28125 C 177.816406 173.820312 177.742188 174.371094 177.742188 174.9375 C 177.742188 180.5 182.25 185.007812 187.816406 185.007812 C 193.375 185.007812 197.886719 180.5 197.886719 174.9375 C 197.886719 174.378906 197.8125 173.835938 197.722656 173.296875 L 206.414062 170.492188 L 196.980469 167.246094 L 197.027344 166.363281 L 206.414062 169.414062 L 206.902344 169.558594 L 207.246094 169.660156 L 207.246094 171.867188 C 207.003906 172.261719 206.757812 172.753906 206.757812 173.148438 C 206.757812 173.882812 207.199219 174.425781 207.789062 174.425781 C 208.328125 174.425781 208.769531 173.886719 208.769531 173.148438 C 208.769531 172.753906 208.527344 172.304688 208.277344 171.914062 Z M 208.277344 169.902344 " fill-opacity="1" fill-rule="nonzero"/><path fill="#000000" d="M 191.632812 269.808594 C 190.597656 265.238281 190.300781 260.964844 190.453125 256.546875 C 191.183594 237.308594 202.167969 220.71875 214.320312 208.644531 C 226.019531 197.015625 238.804688 189.582031 244.5625 188.011719 C 246.066406 187.601562 246.921875 187.445312 247.492188 188.007812 C 248.0625 188.621094 247.972656 189.382812 247.640625 190.617188 C 245.8125 197.429688 233.324219 214.132812 225.089844 219.992188 C 275.410156 207.027344 250.316406 144.367188 249.355469 139.34375 C 249.132812 138.183594 249.234375 137.492188 249.851562 137.230469 C 250.46875 136.972656 250.910156 137.121094 251.46875 137.601562 C 252.40625 138.644531 283.460938 172.933594 260.601562 223.757812 C 257.53125 230.59375 239.738281 266.136719 191.632812 269.808594 Z M 191.632812 269.808594 " fill-opacity="1" fill-rule="nonzero"/><path fill="#000000" d="M 183.355469 269.808594 C 184.386719 265.238281 184.683594 260.964844 184.535156 256.546875 C 183.804688 237.308594 172.820312 220.71875 160.671875 208.644531 C 148.964844 197.015625 136.183594 189.582031 130.425781 188.011719 C 128.921875 187.601562 128.066406 187.445312 127.496094 188.007812 C 126.925781 188.621094 127.019531 189.382812 127.351562 190.617188 C 129.179688 197.429688 141.667969 214.132812 149.902344 219.992188 C 99.578125 207.027344 124.675781 144.367188 125.636719 139.34375 C 125.855469 138.183594 125.753906 137.492188 125.136719 137.230469 C 124.515625 136.972656 124.082031 137.121094 123.515625 137.601562 C 122.578125 138.644531 91.527344 172.933594 114.382812 223.757812 C 117.460938 230.59375 135.253906 266.136719 183.355469 269.808594 Z M 183.355469 269.808594 " fill-opacity="1" fill-rule="nonzero"/><path fill="#000000" d="M 246.382812 181.304688 C 246.382812 181.304688 205.175781 175.441406 187.496094 198.171875 C 170.316406 176.492188 129.21875 179.117188 129.21875 179.117188 C 193.613281 208.871094 187.496094 249.496094 187.496094 249.496094 C 187.496094 249.496094 186.179688 200.289062 246.382812 181.304688 Z M 246.382812 181.304688 " fill-opacity="1" fill-rule="nonzero"/><g clip-path="url(#1b20b15452)"><path fill="#000000" d="M 223.855469 170.039062 C 223.796875 169.191406 223.71875 168.351562 223.605469 167.523438 L 223.605469 167.527344 L 252.28125 157.320312 L 222.03125 160.945312 C 221.769531 160.183594 221.625 159.375 221.316406 158.636719 L 238.621094 148.089844 L 219.40625 155.046875 C 218.882812 154.105469 218.449219 153.109375 217.851562 152.222656 L 240.226562 130.289062 L 213.746094 147.246094 C 214.191406 147.707031 213.121094 146.710938 212.097656 145.789062 L 223.058594 128.679688 L 208.914062 143.160156 C 208.140625 142.601562 207.328125 142.121094 206.503906 141.628906 L 216.734375 112.65625 L 200.625 138.738281 C 199.882812 138.460938 199.105469 138.261719 198.339844 138.03125 L 200.808594 117.804688 L 194.265625 136.949219 C 193.417969 136.792969 192.535156 136.777344 191.671875 136.6875 L 188.371094 105.175781 L 184.859375 136.59375 C 185.851562 136.515625 184.167969 136.574219 182.386719 136.839844 L 175.878906 117.804688 L 178.304688 137.714844 C 177.441406 137.949219 176.589844 138.210938 175.753906 138.507812 L 160.074219 112.984375 L 169.871094 141.222656 C 169.046875 141.695312 168.171875 142.074219 167.390625 142.601562 L 153.628906 128.683594 L 164.226562 145.214844 C 163.335938 145.980469 162.433594 146.714844 161.625 147.558594 C 161.625 147.558594 161.625 147.554688 161.628906 147.554688 L 136.3125 131.40625 L 157.492188 152.699219 C 157.070312 153.335938 156.773438 154.054688 156.394531 154.722656 L 138.070312 148.089844 L 154.480469 158.246094 C 154.082031 159.171875 153.855469 160.179688 153.53125 161.140625 L 123.390625 157.476562 L 152.023438 167.476562 C 152.023438 167.476562 152.027344 167.476562 152.027344 167.472656 C 151.902344 168.351562 151.820312 169.246094 151.753906 170.148438 L 132.550781 172.175781 L 151.667969 174.195312 C 151.613281 173.664062 151.769531 175.429688 151.933594 176.832031 C 152.183594 157.203125 168.125 141.363281 187.808594 141.363281 C 207.492188 141.363281 223.4375 157.207031 223.683594 176.832031 C 223.78125 175.996094 223.847656 175.148438 223.941406 174.3125 L 244.136719 172.175781 Z M 223.855469 170.039062 " fill-opacity="1" fill-rule="nonzero"/></g><g fill="#ffffff" fill-opacity="1"><g transform="translate(105.234882, 139.101657)"><g><path d="M -6.464844 -20.148438 L -1.140625 -16.144531 L -5.054688 -10.9375 L -10.382812 -14.941406 L -12.621094 -11.960938 L 1.1875 -1.578125 L 3.425781 -4.558594 L -2.273438 -8.84375 L 1.640625 -14.050781 L 7.34375 -9.765625 L 9.582031 -12.742188 L -4.226562 -23.128906 Z M -6.464844 -20.148438 "/></g></g></g><g fill="#ffffff" fill-opacity="1"><g transform="translate(116.652914, 124.083575)"><g><path d="M 9.984375 -8.976562 L 13.011719 -11.699219 L -3.734375 -19.878906 L -6.359375 -17.519531 L 0.148438 -0.132812 L 3.101562 -2.789062 L 1.804688 -6.003906 L 6.90625 -10.59375 Z M -1.964844 -15.328125 L 3.867188 -12.238281 L 0.488281 -9.203125 Z M -1.964844 -15.328125 "/></g></g></g><g fill="#ffffff" fill-opacity="1"><g transform="translate(130.689969, 111.721439)"><g><path d="M -1.714844 -19.230469 L -7.367188 -15.75 L 1.683594 -1.035156 L 4.855469 -2.988281 L 2.039062 -7.570312 L 4.519531 -9.097656 C 7.484375 -10.917969 8.378906 -14.457031 6.597656 -17.355469 C 4.8125 -20.257812 1.230469 -21.039062 -1.714844 -19.230469 Z M 2.5625 -11.949219 L 0.226562 -10.515625 L -2.371094 -14.738281 L -0.0390625 -16.175781 C 1.222656 -16.949219 2.628906 -16.597656 3.378906 -15.378906 C 4.128906 -14.160156 3.824219 -12.726562 2.5625 -11.949219 Z M 2.5625 -11.949219 "/></g></g></g><g fill="#ffffff" fill-opacity="1"><g transform="translate(144.711863, 103.203583)"><g><path d="M 1.554688 -19.242188 L -4.605469 -16.769531 L 1.832031 -0.734375 L 5.289062 -2.125 L 3.285156 -7.117188 L 5.988281 -8.203125 C 9.21875 -9.5 10.699219 -12.835938 9.429688 -15.996094 C 8.160156 -19.15625 4.761719 -20.53125 1.554688 -19.242188 Z M 4.539062 -11.34375 L 2 -10.324219 L 0.148438 -14.929688 L 2.691406 -15.949219 C 4.066406 -16.5 5.390625 -15.917969 5.925781 -14.585938 C 6.457031 -13.257812 5.914062 -11.898438 4.539062 -11.34375 Z M 4.539062 -11.34375 "/></g></g></g><g fill="#ffffff" fill-opacity="1"><g transform="translate(159.916841, 97.128136)"><g><path d="M 12.496094 -20.253906 L 8.578125 -19.4375 L 6.082031 -11.832031 L 0.773438 -17.8125 L -3.113281 -17 L 4.882812 -8.152344 L 6.304688 -1.316406 L 10.050781 -2.09375 L 8.632812 -8.910156 Z M 12.496094 -20.253906 "/></g></g></g><g fill="#ffffff" fill-opacity="1"><g transform="translate(177.639697, 93.879707)"><g/></g></g><g fill="#ffffff" fill-opacity="1"><g transform="translate(184.838476, 93.127206)"><g><path d="M 9.441406 -16.839844 L 2.808594 -17.160156 L 1.972656 0.09375 L 5.695312 0.277344 L 5.957031 -5.097656 L 8.863281 -4.957031 C 12.339844 -4.789062 15.078125 -7.203125 15.242188 -10.605469 C 15.40625 -14.007812 12.890625 -16.675781 9.441406 -16.839844 Z M 8.859375 -8.417969 L 6.121094 -8.550781 L 6.363281 -13.503906 L 9.097656 -13.375 C 10.578125 -13.300781 11.539062 -12.21875 11.46875 -10.789062 C 11.398438 -9.355469 10.339844 -8.347656 8.859375 -8.417969 Z M 8.859375 -8.417969 "/></g></g></g><g fill="#ffffff" fill-opacity="1"><g transform="translate(201.172718, 93.900226)"><g><path d="M 13.074219 3.054688 L 17.042969 3.980469 L 14.167969 -14.433594 L 10.730469 -15.238281 L 0.191406 0.0429688 L 4.0625 0.949219 L 5.957031 -1.953125 L 12.636719 -0.394531 Z M 11.449219 -10.378906 L 12.25 -3.832031 L 7.828125 -4.863281 Z M 11.449219 -10.378906 "/></g></g></g><g fill="#ffffff" fill-opacity="1"><g transform="translate(219.375541, 98.451341)"><g><path d="M 6.59375 -0.972656 L 11.957031 -13.710938 L 8.523438 -15.160156 L 1.820312 0.765625 L 11.375 4.789062 L 12.714844 1.601562 Z M 6.59375 -0.972656 "/></g></g></g><g fill="#ffffff" fill-opacity="1"><g transform="translate(232.284947, 103.76034)"><g><path d="M 11.324219 7.21875 L 14.757812 9.40625 L 18.152344 -8.917969 L 15.175781 -10.816406 L 0.167969 0.105469 L 3.519531 2.242188 L 6.269531 0.132812 L 12.054688 3.820312 Z M 14.242188 -5.996094 L 12.828125 0.449219 L 8.996094 -1.992188 Z M 14.242188 -5.996094 "/></g></g></g><g fill="#ffffff" fill-opacity="1"><g transform="translate(247.975338, 113.792117)"><g><path d="M 6.855469 7.148438 C 9.933594 10.109375 14.335938 10.375 17.867188 7.847656 L 15.148438 5.226562 C 13.195312 6.363281 10.976562 6.144531 9.339844 4.570312 C 7.222656 2.53125 7.25 -0.660156 9.40625 -2.902344 C 11.5625 -5.144531 14.773438 -5.308594 16.886719 -3.273438 C 18.453125 -1.765625 18.808594 0.355469 17.917969 2.3125 L 20.605469 4.898438 C 22.878906 1.398438 22.394531 -2.941406 19.371094 -5.851562 C 15.707031 -9.375 10.226562 -9.238281 6.667969 -5.539062 C 3.125 -1.859375 3.195312 3.621094 6.855469 7.148438 Z M 6.855469 7.148438 "/></g></g></g><g fill="#ffffff" fill-opacity="1"><g transform="translate(262.164949, 127.897059)"><g><path d="M 6.136719 2.605469 L 9.019531 0.527344 L 12.527344 5.390625 L 15.269531 3.414062 L 11.761719 -1.453125 L 14.546875 -3.457031 L 18.429688 1.929688 L 21.234375 -0.09375 L 15.171875 -8.503906 L 1.15625 1.601562 L 7.375 10.230469 L 10.179688 8.210938 Z M 6.136719 2.605469 "/></g></g></g><g fill="#000000" fill-opacity="1"><g transform="translate(128.78142, 282.719502)"><g><path d="M 6.644531 3.910156 C 9.808594 5.585938 13.265625 5.378906 15.011719 2.085938 C 16.824219 -1.339844 14.285156 -3.609375 12.28125 -5.421875 C 10.855469 -6.679688 9.71875 -7.699219 10.285156 -8.769531 C 10.816406 -9.773438 12.128906 -9.664062 13.195312 -9.097656 C 14.441406 -8.441406 15.207031 -7.253906 14.503906 -5.921875 L 17.753906 -4.199219 C 19.371094 -7.253906 18.378906 -10.179688 14.867188 -12.042969 C 11.484375 -13.832031 8.449219 -13.316406 6.902344 -10.394531 C 5.15625 -7.101562 7.589844 -4.945312 9.601562 -3.15625 C 11.0625 -1.90625 12.285156 -0.839844 11.652344 0.359375 C 11.050781 1.496094 9.484375 1.503906 8.238281 0.84375 C 6.886719 0.128906 6.046875 -1.238281 6.820312 -2.699219 L 3.484375 -4.46875 C 1.75 -1.195312 3.132812 2.050781 6.644531 3.910156 Z M 6.644531 3.910156 "/></g></g></g><g fill="#000000" fill-opacity="1"><g transform="translate(145.506549, 291.398629)"><g><path d="M 9.335938 3.3125 C 13.414062 4.578125 17.46875 2.839844 19.488281 -1.003906 L 15.882812 -2.121094 C 14.648438 -0.230469 12.566406 0.570312 10.398438 -0.105469 C 7.589844 -0.976562 6.183594 -3.84375 7.105469 -6.8125 C 8.027344 -9.785156 10.820312 -11.371094 13.625 -10.5 C 15.699219 -9.855469 16.96875 -8.117188 17.050781 -5.972656 L 20.613281 -4.867188 C 21.074219 -9.011719 18.695312 -12.671875 14.6875 -13.917969 C 9.832031 -15.425781 4.996094 -12.84375 3.476562 -7.941406 C 1.960938 -3.0625 4.480469 1.804688 9.335938 3.3125 Z M 9.335938 3.3125 "/></g></g></g><g fill="#000000" fill-opacity="1"><g transform="translate(167.268408, 297.723084)"><g><path d="M 13.925781 -15.933594 L 13.242188 -9.304688 L 6.757812 -9.972656 L 7.441406 -16.601562 L 3.734375 -16.984375 L 1.964844 0.203125 L 5.671875 0.585938 L 6.402344 -6.511719 L 12.882812 -5.84375 L 12.152344 1.253906 L 15.859375 1.632812 L 17.632812 -15.550781 Z M 13.925781 -15.933594 "/></g></g></g><g fill="#000000" fill-opacity="1"><g transform="translate(188.813225, 299.685143)"><g><path d="M 10.15625 -0.640625 C 15.386719 -1.175781 18.894531 -5.433594 18.371094 -10.5625 C 17.847656 -15.671875 13.550781 -19.125 8.320312 -18.589844 C 3.066406 -18.054688 -0.464844 -13.773438 0.0546875 -8.691406 C 0.578125 -3.582031 4.902344 -0.105469 10.15625 -0.640625 Z M 9.796875 -4.152344 C 6.726562 -3.839844 4.152344 -5.984375 3.835938 -9.078125 C 3.519531 -12.171875 5.609375 -14.765625 8.679688 -15.082031 C 11.75 -15.394531 14.269531 -13.296875 14.589844 -10.175781 C 14.910156 -7.058594 12.867188 -4.46875 9.796875 -4.152344 Z M 9.796875 -4.152344 "/></g></g></g><g fill="#000000" fill-opacity="1"><g transform="translate(212.714697, 296.83148)"><g><path d="M 9.785156 -2.804688 C 14.777344 -4.445312 17.292969 -9.355469 15.683594 -14.253906 C 14.078125 -19.128906 9.136719 -21.585938 4.144531 -19.941406 C -0.875 -18.292969 -3.40625 -13.351562 -1.808594 -8.5 C -0.203125 -3.621094 4.765625 -1.152344 9.785156 -2.804688 Z M 8.679688 -6.15625 C 5.75 -5.191406 2.773438 -6.734375 1.800781 -9.6875 C 0.828125 -12.640625 2.316406 -15.625 5.246094 -16.589844 C 8.179688 -17.554688 11.089844 -16.042969 12.070312 -13.066406 C 13.050781 -10.089844 11.609375 -7.121094 8.679688 -6.15625 Z M 8.679688 -6.15625 "/></g></g></g><g fill="#000000" fill-opacity="1"><g transform="translate(235.114291, 288.776513)"><g><path d="M 3.355469 -5.761719 L -3.25 -17.902344 L -6.523438 -16.121094 L 1.734375 -0.945312 L 10.839844 -5.898438 L 9.1875 -8.933594 Z M 3.355469 -5.761719 "/></g></g></g></svg>